<svg xmlns="http://www.w3.org/2000/svg" width="1920" height="600" viewBox="0 0 1920 600"><rect width="100%" height="100%" fill="#004080"/><path fill="#ffffff" d="M438.17 321.26h51.75l-19.8-54.11q-1.46-3.6-3.04-8.55-1.57-4.95-3.15-10.69-1.46 5.74-3.04 10.75-1.57 5-3.03 8.72zm41.29-101.25 63.9 162.68h-23.4q-3.94 0-6.42-1.97-2.47-1.97-3.71-4.89l-12.15-33.19h-67.39l-12.15 33.19q-.9 2.58-3.48 4.72-2.59 2.14-6.42 2.14h-23.62l64.01-162.68zm111.15 0v162.68h-30.38V220.01zm121.27 77.4h18.9q8.55 0 14.91-2.13 6.35-2.14 10.46-5.91t6.13-8.94q2.03-5.18 2.03-11.37 0-12.37-8.16-19.01t-24.92-6.64h-19.35zm56.03 25.2 40.72 60.08h-27.34q-7.76 0-11.25-6.08l-34.2-52.08q-1.91-2.93-4.21-4.17-2.31-1.23-6.81-1.23h-12.94v63.56h-30.26V220.01h49.61q16.54 0 28.41 3.44 11.87 3.43 19.46 9.61 7.59 6.19 11.19 14.8 3.6 8.6 3.6 18.95 0 8.22-2.41 15.53-2.42 7.31-6.98 13.27-4.56 5.97-11.25 10.47t-15.24 7.08q2.92 1.69 5.4 4 2.47 2.3 4.5 5.45m105.07-57.15q12.83 0 23.35 4.17 10.51 4.16 18 11.81 7.48 7.65 11.53 18.67 4.05 11.03 4.05 24.64 0 13.73-4.05 24.75-4.05 11.03-11.53 18.79-7.49 7.76-18 11.92-10.52 4.17-23.35 4.17-12.94 0-23.51-4.17-10.58-4.16-18.06-11.92t-11.58-18.79q-4.11-11.02-4.11-24.75 0-13.61 4.11-24.64 4.1-11.02 11.58-18.67t18.06-11.81q10.57-4.17 23.51-4.17m0 97.54q14.4 0 21.32-9.67 6.92-9.68 6.92-28.35 0-18.68-6.92-28.46-6.92-9.79-21.32-9.79-14.62 0-21.65 9.84-7.04 9.84-7.04 28.41 0 18.56 7.04 28.29 7.03 9.73 21.65 9.73m105.98-61.98v51.74q4.72 5.74 10.29 8.11 5.57 2.36 11.76 2.36 6.41 0 11.53-2.31 5.12-2.3 8.72-7.2 3.6-4.89 5.51-12.49 1.91-7.59 1.91-18.17 0-19.01-6.3-27.5-6.3-8.5-18.11-8.5-7.99 0-13.95 3.66t-11.36 10.3m0-85.51v65.93q6.97-7.31 15.47-11.64 8.49-4.34 19.4-4.34 10.02 0 18.06 3.94t13.72 11.31q5.69 7.37 8.72 17.83 3.04 10.46 3.04 23.51 0 14.06-3.49 25.54-3.49 11.47-9.95 19.63-6.47 8.16-15.58 12.66-9.12 4.5-20.25 4.5-5.41 0-9.79-1.07-4.39-1.07-8.1-2.98-3.72-1.92-6.81-4.67-3.09-2.76-5.91-6.13l-1.23 7.76q-.68 2.92-2.31 4.16t-4.44 1.24h-18.34V215.51zm150.97 49.95q12.83 0 23.35 4.17 10.51 4.16 18 11.81 7.48 7.65 11.53 18.67 4.05 11.03 4.05 24.64 0 13.73-4.05 24.75-4.05 11.03-11.53 18.79-7.49 7.76-18 11.92-10.52 4.17-23.35 4.17-12.93 0-23.51-4.17-10.57-4.16-18.06-11.92-7.48-7.76-11.58-18.79-4.11-11.02-4.11-24.75 0-13.61 4.11-24.64 4.1-11.02 11.58-18.67 7.49-7.65 18.06-11.81 10.58-4.17 23.51-4.17m0 97.54q14.4 0 21.32-9.67 6.92-9.68 6.92-28.35 0-18.68-6.92-28.46-6.92-9.79-21.32-9.79-14.62 0-21.65 9.84t-7.03 28.41q0 18.56 7.03 28.29t21.65 9.73m116.67 21.49q-15.08 0-23.12-8.49-8.05-8.5-8.05-23.46v-64.46h-11.81q-2.25 0-3.82-1.47-1.58-1.46-1.58-4.38V271.2l18.56-3.04 5.85-31.5q.57-2.25 2.14-3.48 1.58-1.24 4.05-1.24h14.4v36.34h30.83v19.8h-30.83v62.55q0 5.4 2.64 8.43 2.65 3.04 7.26 3.04 2.59 0 4.33-.62 1.75-.61 3.04-1.29t2.31-1.29q1.01-.62 2.02-.62 1.24 0 2.03.62.78.61 1.68 1.85l8.33 13.5q-6.08 5.06-13.95 7.65-7.88 2.59-16.31 2.59m46.12-117.22h27.9v115.42h-27.9zm31.73-33.64q0 3.6-1.47 6.75-1.46 3.15-3.88 5.51t-5.68 3.77q-3.26 1.4-6.97 1.4-3.6 0-6.81-1.4-3.21-1.41-5.57-3.77t-3.77-5.51q-1.4-3.15-1.4-6.75 0-3.72 1.4-6.98 1.41-3.26 3.77-5.62 2.36-2.37 5.57-3.77 3.21-1.41 6.81-1.41 3.71 0 6.97 1.41 3.26 1.4 5.68 3.77 2.42 2.36 3.88 5.62 1.47 3.26 1.47 6.98m114.52 47.92-7.31 10.13q-1.24 1.57-2.42 2.47t-3.43.9q-2.14 0-4.17-1.29-2.02-1.3-4.83-2.93-2.82-1.63-6.7-2.92-3.88-1.3-9.62-1.3-7.31 0-12.82 2.65-5.51 2.64-9.17 7.59-3.65 4.95-5.46 11.98-1.8 7.03-1.8 15.92 0 9.23 1.97 16.43t5.68 12.09q3.72 4.89 9 7.43 5.29 2.53 11.93 2.53t10.74-1.63q4.11-1.64 6.92-3.6 2.81-1.97 4.9-3.6 2.08-1.64 4.66-1.64 3.38 0 5.07 2.59l7.99 10.13q-4.62 5.4-10.02 9.05-5.4 3.66-11.19 5.85-5.79 2.2-11.93 3.1-6.13.9-12.2.9-10.69 0-20.14-4-9.45-3.99-16.54-11.64t-11.19-18.73q-4.11-11.08-4.11-25.26 0-12.71 3.66-23.57 3.66-10.85 10.74-18.78 7.09-7.94 17.55-12.44t24.08-4.5q12.93 0 22.67 4.17 9.73 4.16 17.49 11.92m95.17-1.8-6.29 10.02q-1.13 1.79-2.37 2.53-1.24.73-3.15.73-2.02 0-4.33-1.13-2.31-1.12-5.34-2.53-3.04-1.41-6.92-2.53-3.88-1.13-9.17-1.13-8.21 0-12.88 3.49t-4.67 9.11q0 3.72 2.42 6.25t6.41 4.44q4 1.91 9.06 3.43t10.29 3.32 10.29 4.11q5.07 2.31 9.06 5.85t6.41 8.49 2.42 11.93q0 8.32-2.98 15.35t-8.83 12.15-14.46 7.99q-8.6 2.87-19.85 2.87-5.97 0-11.65-1.07t-10.91-2.98-9.67-4.5q-4.45-2.59-7.82-5.63l6.41-10.57q1.24-1.91 2.92-2.93 1.69-1.01 4.28-1.01t4.89 1.46q2.31 1.47 5.35 3.15 3.03 1.69 7.14 3.15 4.11 1.47 10.41 1.47 4.95 0 8.49-1.18 3.54-1.19 5.85-3.1t3.38-4.44q1.06-2.53 1.06-5.23 0-4.05-2.41-6.64-2.42-2.59-6.42-4.5-3.99-1.91-9.11-3.43t-10.46-3.32q-5.35-1.8-10.46-4.22-5.12-2.42-9.12-6.13-3.99-3.71-6.41-9.11t-2.42-13.05q0-7.09 2.81-13.5 2.82-6.41 8.27-11.2 5.46-4.78 13.62-7.65 8.15-2.87 18.84-2.87 11.92 0 21.71 3.94t16.31 10.35"/></svg>