<svg xmlns="http://www.w3.org/2000/svg" width="1920" height="600" viewBox="0 0 1920 600"><rect width="100%" height="100%" fill="#003366"/><path fill="#ffffff" d="m447.615 252.595-4.25 8.07q-.76 1.33-1.62 1.94-.86.6-2.13.6-1.33 0-2.89-.98-1.55-.99-3.71-2.2-2.16-1.2-5.05-2.19-2.89-.98-6.83-.98-3.55 0-6.22.86-2.67.85-4.48 2.38-1.81 1.52-2.69 3.65-.89 2.13-.89 4.67 0 3.23 1.81 5.39t4.79 3.69q2.98 1.52 6.79 2.73 3.81 1.2 7.82 2.57 4 1.36 7.81 3.17t6.79 4.58q2.98 2.76 4.79 6.76t1.81 9.71q0 6.23-2.12 11.66-2.13 5.43-6.23 9.46-4.09 4.03-10 6.35-5.9 2.32-13.52 2.32-4.38 0-8.64-.86-4.25-.86-8.16-2.45-3.9-1.58-7.33-3.81-3.43-2.22-6.1-4.95l5.02-8.19q.63-.89 1.65-1.49 1.01-.61 2.16-.61 1.59 0 3.43 1.31 1.84 1.3 4.38 2.89 2.54 1.58 5.94 2.88 3.39 1.31 8.16 1.31 7.3 0 11.3-3.46 4-3.47 4-9.94 0-3.62-1.81-5.91-1.81-2.28-4.8-3.84-2.98-1.56-6.79-2.63-3.81-1.08-7.75-2.35-3.93-1.27-7.74-3.05t-6.8-4.64q-2.98-2.86-4.79-7.14-1.81-4.29-1.81-10.57 0-5.02 2-9.78 2-4.77 5.81-8.45t9.4-5.9q5.58-2.23 12.82-2.23 8.13 0 14.99 2.54t11.68 7.11m29.72 83.19h-15.68v-65.15h9.59q3.04 0 4 2.86l1.01 4.82q1.72-1.9 3.59-3.49t4-2.73 4.57-1.81q2.45-.67 5.37-.67 6.16 0 10.13 3.34 3.96 3.33 5.93 8.85 1.53-3.23 3.81-5.55 2.29-2.32 5.02-3.78t5.81-2.16 6.19-.7q5.4 0 9.59 1.65t7.05 4.83q2.86 3.17 4.35 7.75 1.49 4.57 1.49 10.47v41.47h-15.68v-41.47q0-6.22-2.73-9.36-2.74-3.15-8.01-3.15-2.41 0-4.47.83-2.07.83-3.62 2.38-1.56 1.56-2.45 3.91t-.89 5.39v41.47h-15.74v-41.47q0-6.54-2.64-9.52-2.63-2.99-7.71-2.99-3.43 0-6.39 1.69-2.95 1.68-5.49 4.6zm125.1-16.83v-10.98q-6.8.31-11.43 1.17-4.64.86-7.43 2.19-2.8 1.34-4 3.11-1.21 1.78-1.21 3.88 0 4.12 2.44 5.9 2.45 1.78 6.39 1.78 4.82 0 8.35-1.75 3.52-1.74 6.89-5.3m-33.15-34.22-2.79-5.02q11.23-10.29 27.05-10.29 5.71 0 10.22 1.88 4.51 1.87 7.62 5.2 3.11 3.34 4.73 7.97 1.62 4.64 1.62 10.16v41.15h-7.11q-2.22 0-3.43-.67-1.21-.66-1.91-2.7l-1.39-4.69q-2.48 2.22-4.83 3.9t-4.89 2.83q-2.54 1.14-5.43 1.74-2.89.61-6.38.61-4.13 0-7.62-1.12-3.49-1.11-6.03-3.33t-3.94-5.52q-1.4-3.31-1.4-7.69 0-2.47.83-4.92.82-2.44 2.7-4.67 1.87-2.22 4.86-4.19 2.98-1.96 7.33-3.43 4.35-1.46 10.13-2.38t13.21-1.11v-3.81q0-6.54-2.8-9.68-2.79-3.15-8.06-3.15-3.81 0-6.32.89t-4.41 2q-1.91 1.12-3.46 2-1.56.89-3.47.89-1.65 0-2.79-.85-1.14-.86-1.84-2m77.02-10.16.96 7.36q3.05-5.84 7.24-9.17 4.19-3.34 9.9-3.34 4.51 0 7.24 1.97l-1.01 11.75q-.32 1.14-.93 1.62-.6.47-1.61.47-.96 0-2.83-.31-1.87-.32-3.65-.32-2.61 0-4.64.76t-3.65 2.19-2.86 3.46q-1.23 2.03-2.31 4.64v40.13h-15.69v-65.15h9.21q2.41 0 3.36.86.96.85 1.27 3.08m55.25 62.23q-8.51 0-13.05-4.8-4.54-4.79-4.54-13.24v-36.38h-6.67q-1.27 0-2.16-.83-.89-.82-.89-2.48v-6.22l10.48-1.71 3.3-17.78q.32-1.27 1.21-1.97t2.29-.7h8.12v20.51h17.4v11.18h-17.4v35.3q0 3.05 1.5 4.76 1.49 1.72 4.09 1.72 1.46 0 2.45-.35.98-.35 1.71-.73t1.3-.73q.58-.35 1.15-.35.7 0 1.14.35t.95 1.05l4.7 7.62q-3.43 2.85-7.87 4.32-4.45 1.46-9.21 1.46m119.13-92.84h17.14v91.82h-17.14v-40.13h-43.12v40.13h-17.15v-91.82h17.15v39.5h43.12zm63.94 25.65q7.24 0 13.18 2.35 5.93 2.35 10.16 6.67 4.22 4.32 6.51 10.54 2.28 6.22 2.28 13.91 0 7.74-2.28 13.97-2.29 6.22-6.51 10.6-4.23 4.38-10.16 6.73-5.94 2.35-13.18 2.35-7.3 0-13.27-2.35t-10.19-6.73q-4.23-4.38-6.54-10.6-2.32-6.23-2.32-13.97 0-7.69 2.32-13.91 2.31-6.22 6.54-10.54 4.22-4.32 10.19-6.67t13.27-2.35m0 55.06q8.13 0 12.03-5.46 3.91-5.46 3.91-16.01 0-10.54-3.91-16.06-3.9-5.53-12.03-5.53-8.25 0-12.22 5.56t-3.97 16.03q0 10.48 3.97 15.97 3.97 5.5 12.22 5.5m59.82 11.11h-15.69v-65.15h9.59q3.05 0 4 2.86l1.02 4.82q1.71-1.9 3.59-3.49 1.87-1.59 4-2.73 2.12-1.14 4.57-1.81 2.44-.67 5.36-.67 6.16 0 10.13 3.34 3.97 3.33 5.94 8.85 1.52-3.23 3.81-5.55t5.02-3.78 5.81-2.16 6.19-.7q5.39 0 9.59 1.65 4.19 1.65 7.04 4.83 2.86 3.17 4.35 7.75 1.5 4.57 1.5 10.47v41.47h-15.69v-41.47q0-6.22-2.73-9.36-2.73-3.15-8-3.15-2.41 0-4.48.83-2.06.83-3.62 2.38-1.55 1.56-2.44 3.91t-.89 5.39v41.47h-15.75v-41.47q0-6.54-2.63-9.52-2.64-2.99-7.72-2.99-3.43 0-6.38 1.69-2.95 1.68-5.49 4.6zm103.06-40.07h29.59q0-3.05-.86-5.75-.86-2.69-2.57-4.73-1.71-2.03-4.35-3.2-2.64-1.18-6.13-1.18-6.79 0-10.7 3.88-3.9 3.87-4.98 10.98m40 9.46h-40.32q.38 5.02 1.78 8.67t3.68 6.03q2.29 2.38 5.43 3.56 3.14 1.17 6.95 1.17t6.58-.88q2.76-.89 4.82-1.97 2.07-1.08 3.62-1.97 1.56-.89 3.02-.89 1.97 0 2.92 1.46l4.51 5.71q-2.61 3.05-5.84 5.12-3.24 2.06-6.77 3.3-3.52 1.24-7.17 1.74-3.65.51-7.08.51-6.8 0-12.64-2.25-5.84-2.26-10.16-6.67t-6.79-10.92q-2.48-6.51-2.48-15.08 0-6.67 2.16-12.54 2.16-5.88 6.19-10.23t9.84-6.89 13.11-2.54q6.16 0 11.37 1.97t8.95 5.75q3.75 3.78 5.88 9.27t2.13 12.54q0 3.56-.77 4.79-.76 1.24-2.92 1.24m101.92-52.58-4.25 8.07q-.77 1.33-1.62 1.94-.86.6-2.13.6-1.33 0-2.89-.98-1.56-.99-3.71-2.2-2.16-1.2-5.05-2.19-2.89-.98-6.83-.98-3.56 0-6.22.86-2.67.85-4.48 2.38-1.81 1.52-2.7 3.65t-.89 4.67q0 3.23 1.81 5.39t4.8 3.69q2.98 1.52 6.79 2.73 3.81 1.2 7.81 2.57 4 1.36 7.81 3.17t6.8 4.58q2.98 2.76 4.79 6.76t1.81 9.71q0 6.23-2.13 11.66-2.12 5.43-6.22 9.46-4.09 4.03-10 6.35t-13.53 2.32q-4.38 0-8.63-.86-4.26-.86-8.16-2.45-3.91-1.58-7.34-3.81-3.42-2.22-6.09-4.95l5.01-8.19q.64-.89 1.66-1.49 1.01-.61 2.15-.61 1.59 0 3.43 1.31 1.85 1.3 4.39 2.89 2.54 1.58 5.93 2.88 3.4 1.31 8.16 1.31 7.3 0 11.31-3.46 4-3.47 4-9.94 0-3.62-1.81-5.91-1.81-2.28-4.8-3.84-2.98-1.56-6.79-2.63-3.81-1.08-7.75-2.35t-7.75-3.05-6.79-4.64q-2.99-2.86-4.8-7.14-1.81-4.29-1.81-10.57 0-5.02 2-9.78 2.01-4.77 5.82-8.45t9.39-5.9q5.59-2.23 12.83-2.23 8.13 0 14.99 2.54 6.85 2.54 11.68 7.11m60.64 18.04h12.58l-35.5 83.06q-.7 1.65-1.81 2.51-1.11.85-3.4.85h-11.68l12.19-26.16-26.35-60.26h13.78q1.84 0 2.89.89 1.04.89 1.55 2.03l13.85 33.78q.69 1.72 1.17 3.43.48 1.72.92 3.49.57-1.77 1.14-3.52.58-1.75 1.27-3.46l13.08-33.72q.51-1.27 1.69-2.1 1.17-.82 2.63-.82m63.69 7.05-3.55 5.65q-.64 1.01-1.34 1.43-.69.41-1.77.41-1.15 0-2.45-.63-1.3-.64-3.02-1.43-1.71-.8-3.9-1.43-2.19-.64-5.18-.64-4.63 0-7.27 1.97-2.63 1.97-2.63 5.14 0 2.1 1.36 3.53 1.37 1.43 3.62 2.51 2.26 1.08 5.11 1.93 2.86.86 5.81 1.88 2.96 1.01 5.82 2.32 2.85 1.3 5.11 3.3 2.25 2 3.62 4.79 1.36 2.8 1.36 6.73 0 4.7-1.68 8.67t-4.99 6.86q-3.3 2.89-8.16 4.51-4.85 1.62-11.2 1.62-3.37 0-6.58-.61-3.2-.6-6.16-1.68-2.95-1.08-5.46-2.54-2.5-1.46-4.41-3.18l3.62-5.96q.7-1.08 1.65-1.66.95-.57 2.41-.57t2.77.83q1.3.82 3.01 1.78 1.72.95 4.03 1.78 2.32.82 5.88.82 2.79 0 4.79-.67 2-.66 3.3-1.74 1.31-1.08 1.91-2.51t.6-2.95q0-2.29-1.36-3.75-1.37-1.46-3.62-2.54-2.26-1.08-5.15-1.94-2.88-.85-5.9-1.87t-5.91-2.38q-2.89-1.37-5.14-3.46-2.25-2.1-3.62-5.15-1.36-3.04-1.36-7.36 0-4 1.58-7.62 1.59-3.62 4.67-6.32t7.68-4.32q4.61-1.62 10.64-1.62 6.73 0 12.26 2.23 5.52 2.22 9.2 5.84m34.23 59.12q-8.51 0-13.05-4.8-4.54-4.79-4.54-13.24v-36.38h-6.67q-1.27 0-2.16-.83-.89-.82-.89-2.48v-6.22l10.48-1.71 3.3-17.78q.32-1.27 1.21-1.97t2.29-.7h8.12v20.51h17.4v11.18h-17.4v35.3q0 3.05 1.5 4.76 1.49 1.72 4.09 1.72 1.46 0 2.45-.35.98-.35 1.71-.73t1.3-.73q.58-.35 1.15-.35.7 0 1.14.35t.95 1.05l4.7 7.62q-3.43 2.85-7.87 4.32-4.45 1.46-9.21 1.46m37.91-41.09h29.59q0-3.05-.86-5.75-.85-2.69-2.57-4.73-1.71-2.03-4.35-3.2-2.63-1.18-6.13-1.18-6.79 0-10.7 3.88-3.9 3.87-4.98 10.98m40 9.46h-40.32q.38 5.02 1.78 8.67t3.68 6.03q2.29 2.38 5.43 3.56 3.15 1.17 6.96 1.17t6.57-.88q2.76-.89 4.82-1.97 2.07-1.08 3.62-1.97 1.56-.89 3.02-.89 1.97 0 2.92 1.46l4.51 5.71q-2.6 3.05-5.84 5.12-3.24 2.06-6.77 3.3-3.52 1.24-7.17 1.74-3.65.51-7.08.51-6.8 0-12.64-2.25-5.84-2.26-10.16-6.67t-6.79-10.92q-2.48-6.51-2.48-15.08 0-6.67 2.16-12.54 2.16-5.88 6.19-10.23t9.84-6.89 13.12-2.54q6.16 0 11.36 1.97 5.21 1.97 8.96 5.75 3.74 3.78 5.87 9.27t2.13 12.54q0 3.56-.76 4.79-.77 1.24-2.93 1.24m31.12 30.61h-15.69v-65.15h9.59q3.05 0 4 2.86l1.02 4.82q1.71-1.9 3.59-3.49 1.87-1.59 4-2.73t4.57-1.81 5.37-.67q6.16 0 10.12 3.34 3.97 3.33 5.94 8.85 1.53-3.23 3.81-5.55 2.29-2.32 5.02-3.78t5.81-2.16 6.19-.7q5.4 0 9.59 1.65t7.05 4.83q2.85 3.17 4.35 7.75 1.49 4.57 1.49 10.47v41.47h-15.69v-41.47q0-6.22-2.73-9.36-2.73-3.15-8-3.15-2.41 0-4.47.83-2.07.83-3.62 2.38-1.56 1.56-2.45 3.91t-.89 5.39v41.47h-15.75v-41.47q0-6.54-2.63-9.52-2.64-2.99-7.72-2.99-3.43 0-6.38 1.69-2.95 1.68-5.49 4.6z"/></svg>