<svg xmlns="http://www.w3.org/2000/svg" width="1920" height="600" viewBox="0 0 1920 600"><rect width="100%" height="100%" fill="#002244"/><path fill="#ffffff" d="M482.275 320.75q1.95 0 3.45 1.51l9.38 10.17q-7.79 9.65-19.16 14.78-11.37 5.14-27.3 5.14-14.25 0-25.62-4.87t-19.43-13.54q-8.05-8.67-12.34-20.71t-4.29-26.29q0-14.42 4.6-26.41t12.96-20.67q8.37-8.67 19.96-13.49 11.59-4.83 25.66-4.83 13.99 0 24.83 4.61 10.84 4.6 18.45 12.03l-7.96 11.06q-.71 1.07-1.82 1.86-1.1.8-3.05.8-1.33 0-2.74-.75-1.42-.76-3.1-1.86-1.68-1.11-3.9-2.44-2.21-1.32-5.13-2.43t-6.77-1.86-8.89-.75q-8.59 0-15.71 3.05-7.13 3.06-12.26 8.85-5.13 5.8-7.96 14.16-2.84 8.37-2.84 19.07 0 10.8 3.06 19.21 3.05 8.41 8.27 14.16t12.3 8.8q7.08 3.06 15.22 3.06 4.87 0 8.81-.53t7.26-1.68q3.32-1.16 6.28-2.97 2.97-1.81 5.89-4.47.88-.79 1.85-1.28.98-.49 2.04-.49m26.02-101.33h21.86v131.51h-21.86zm83.9 39.29q10.09 0 18.36 3.28 8.28 3.27 14.16 9.29 5.89 6.02 9.07 14.69 3.19 8.67 3.19 19.38 0 10.8-3.19 19.47-3.18 8.68-9.07 14.78-5.88 6.11-14.16 9.38-8.27 3.28-18.36 3.28-10.18 0-18.5-3.28-8.32-3.27-14.2-9.38-5.89-6.1-9.12-14.78-3.23-8.67-3.23-19.47 0-10.71 3.23-19.38t9.12-14.69q5.88-6.02 14.2-9.29 8.32-3.28 18.5-3.28m0 76.73q11.33 0 16.77-7.61t5.44-22.3-5.44-22.39-16.77-7.7q-11.51 0-17.04 7.74-5.53 7.75-5.53 22.35t5.53 22.26q5.53 7.65 17.04 7.65m117.88-75.31h21.86v90.8h-13.36q-4.34 0-5.49-3.98l-1.51-7.26q-5.57 5.66-12.3 9.16-6.72 3.5-15.84 3.5-7.43 0-13.14-2.53-5.71-2.52-9.6-7.12-3.9-4.6-5.89-10.93t-1.99-13.94v-57.7h21.86v57.7q0 8.32 3.85 12.88t11.55 4.56q5.66 0 10.62-2.53 4.95-2.52 9.38-6.94zm100.45 63.9v-40.71q-3.72-4.52-8.1-6.38-4.38-1.85-9.43-1.85-4.95 0-8.93 1.85-3.99 1.86-6.82 5.62-2.83 3.77-4.34 9.56-1.5 5.8-1.5 13.68 0 7.96 1.28 13.49 1.29 5.53 3.68 9.03 2.39 3.49 5.84 5.04t7.7 1.55q6.81 0 11.59-2.83t9.03-8.05m0-104.61h21.86v131.51h-13.37q-4.33 0-5.48-3.98l-1.86-8.76q-5.49 6.28-12.61 10.17-7.13 3.9-16.6 3.9-7.43 0-13.63-3.1-6.19-3.1-10.66-8.98-4.47-5.89-6.9-14.56-2.44-8.67-2.44-19.82 0-10.09 2.75-18.77 2.74-8.67 7.87-15.04 5.14-6.37 12.3-9.96 7.17-3.58 16.11-3.58 7.61 0 13.01 2.39t9.65 6.46zM974.515 235l-5.93 11.23q-1.06 1.86-2.26 2.7-1.19.84-2.96.84-1.86 0-4.03-1.37t-5.18-3.05-7.03-3.05q-4.03-1.38-9.52-1.38-4.95 0-8.67 1.2-3.72 1.19-6.24 3.32-2.52 2.12-3.76 5.09-1.24 2.96-1.24 6.5 0 4.52 2.52 7.52 2.52 3.01 6.68 5.14 4.16 2.12 9.47 3.8t10.89 3.59q5.57 1.9 10.88 4.42t9.47 6.37 6.69 9.43q2.52 5.57 2.52 13.54 0 8.67-2.97 16.24-2.96 7.57-8.67 13.19t-13.94 8.85-18.85 3.23q-6.11 0-12.03-1.2-5.93-1.19-11.38-3.41-5.44-2.21-10.22-5.31-4.78-3.09-8.49-6.9l6.99-11.42q.88-1.23 2.3-2.08 1.41-.84 3.01-.84 2.21 0 4.78 1.82 2.56 1.81 6.1 4.03 3.54 2.21 8.28 4.02 4.73 1.82 11.37 1.82 10.18 0 15.75-4.83 5.58-4.82 5.58-13.85 0-5.04-2.52-8.23-2.53-3.18-6.69-5.35t-9.47-3.67q-5.31-1.51-10.79-3.28-5.49-1.77-10.8-4.25t-9.47-6.46-6.68-9.95q-2.52-5.98-2.52-14.74 0-6.99 2.78-13.63 2.79-6.64 8.1-11.77t13.1-8.23 17.88-3.1q11.33 0 20.88 3.54 9.56 3.54 16.29 9.92m36.81 60.09h41.24q0-4.25-1.19-8.01-1.2-3.76-3.58-6.6-2.39-2.83-6.07-4.47-3.67-1.63-8.54-1.63-9.47 0-14.91 5.4-5.44 5.39-6.95 15.31m55.76 13.18h-56.2q.53 6.99 2.48 12.08t5.13 8.41q3.19 3.32 7.57 4.96 4.38 1.63 9.69 1.63t9.16-1.23q3.85-1.24 6.72-2.75 2.88-1.5 5.05-2.74t4.2-1.24q2.75 0 4.07 2.03l6.29 7.97q-3.63 4.25-8.14 7.12-4.52 2.88-9.43 4.61-4.91 1.72-10 2.43t-9.87.71q-9.47 0-17.61-3.14-8.14-3.15-14.16-9.3t-9.47-15.22-3.45-21.02q0-9.29 3.01-17.48 3.01-8.18 8.63-14.24 5.62-6.07 13.71-9.61 8.1-3.54 18.28-3.54 8.58 0 15.84 2.75 7.26 2.74 12.48 8.01 5.22 5.26 8.19 12.92 2.96 7.65 2.96 17.48 0 4.95-1.06 6.68-1.06 1.72-4.07 1.72m92.3-36.9-5.75 7.96q-.97 1.24-1.9 1.95t-2.7.71q-1.68 0-3.28-1.02-1.59-1.02-3.8-2.3t-5.27-2.3q-3.05-1.02-7.56-1.02-5.76 0-10.09 2.08-4.34 2.08-7.22 5.97-2.87 3.9-4.29 9.43-1.41 5.53-1.41 12.52 0 7.26 1.55 12.92 1.54 5.67 4.46 9.52 2.93 3.85 7.08 5.84 4.16 1.99 9.39 1.99 5.22 0 8.45-1.28 3.23-1.29 5.44-2.84 2.21-1.54 3.85-2.83 1.64-1.28 3.67-1.28 2.66 0 3.99 2.03l6.28 7.97q-3.63 4.25-7.88 7.12-4.25 2.88-8.8 4.61-4.56 1.72-9.38 2.43-4.83.71-9.61.71-8.4 0-15.84-3.14-7.43-3.15-13.01-9.16-5.57-6.02-8.8-14.74t-3.23-19.87q0-10 2.87-18.54 2.88-8.54 8.45-14.78 5.58-6.24 13.81-9.78t18.94-3.54q10.18 0 17.83 3.28 7.66 3.27 13.76 9.38m70.89-11.24h21.86v90.8h-13.36q-4.34 0-5.49-3.98l-1.5-7.26q-5.58 5.66-12.3 9.16-6.73 3.5-15.85 3.5-7.43 0-13.14-2.53-5.71-2.52-9.6-7.12t-5.89-10.93q-1.99-6.33-1.99-13.94v-57.7h21.86v57.7q0 8.32 3.85 12.88t11.55 4.56q5.67 0 10.62-2.53 4.96-2.52 9.38-6.94zm62.75 5.49 1.33 10.26q4.24-8.14 10.09-12.79 5.84-4.64 13.8-4.64 6.28 0 10.09 2.74l-1.42 16.37q-.44 1.6-1.28 2.26t-2.26.66q-1.32 0-3.93-.44t-5.09-.44q-3.63 0-6.46 1.06-2.84 1.06-5.09 3.05-2.26 2-3.98 4.83-1.73 2.83-3.23 6.46v55.93h-21.86v-90.8h12.83q3.36 0 4.69 1.19 1.33 1.2 1.77 4.3m47.43-5.49h21.95v90.8h-21.95zm24.96-26.46q0 2.83-1.15 5.31t-3.05 4.33q-1.9 1.86-4.47 2.97t-5.49 1.11q-2.83 0-5.35-1.11t-4.38-2.97q-1.86-1.85-2.97-4.33-1.1-2.48-1.1-5.31 0-2.92 1.1-5.49 1.11-2.57 2.97-4.42 1.86-1.86 4.38-2.97t5.35-1.11q2.92 0 5.49 1.11t4.47 2.97q1.9 1.85 3.05 4.42t1.15 5.49m49.56 118.68q-11.86 0-18.19-6.69-6.32-6.68-6.32-18.45V276.5h-9.3q-1.77 0-3-1.15-1.24-1.15-1.24-3.45v-8.67l14.6-2.39 4.6-24.78q.44-1.77 1.68-2.75 1.24-.97 3.19-.97h11.33v28.59h24.25v15.57h-24.25v49.21q0 4.25 2.08 6.64 2.08 2.38 5.7 2.38 2.04 0 3.41-.48 1.37-.49 2.39-1.02t1.82-1.02q.79-.48 1.59-.48.97 0 1.59.48.62.49 1.33 1.46l6.55 10.62q-4.78 3.99-10.98 6.02-6.19 2.04-12.83 2.04m100.54-92.22h17.52l-49.47 115.76q-.97 2.3-2.52 3.49-1.55 1.2-4.74 1.2h-16.28l16.99-36.46-36.73-83.99h19.21q2.56 0 4.02 1.24t2.17 2.83l19.3 47.08q.97 2.39 1.63 4.78.67 2.39 1.29 4.87.79-2.48 1.59-4.91.8-2.44 1.77-4.83l18.23-46.99q.71-1.77 2.34-2.92 1.64-1.15 3.68-1.15"/></svg>